<?xml version="1.0" encoding="utf-8"?>
<!-- Generator: Adobe Illustrator 16.0.0, SVG Export Plug-In . SVG Version: 6.00 Build 0)  -->
<!DOCTYPE svg PUBLIC "-//W3C//DTD SVG 1.1//EN" "http://www.w3.org/Graphics/SVG/1.1/DTD/svg11.dtd" [
	<!ENTITY ns_flows "http://ns.adobe.com/Flows/1.0/">
	<!ENTITY ns_extend "http://ns.adobe.com/Extensibility/1.0/">
	<!ENTITY ns_ai "http://ns.adobe.com/AdobeIllustrator/10.0/">
	<!ENTITY ns_graphs "http://ns.adobe.com/Graphs/1.0/">
]>
<svg version="1.1" id="Layer_1" xmlns:x="&ns_extend;" xmlns:i="&ns_ai;" xmlns:graph="&ns_graphs;"
	 xmlns="http://www.w3.org/2000/svg" xmlns:xlink="http://www.w3.org/1999/xlink" xmlns:a="http://ns.adobe.com/AdobeSVGViewerExtensions/3.0/"
	 x="0px" y="0px" width="864px" height="864px" viewBox="0 0 864 864" enable-background="new 0 0 864 864" xml:space="preserve">
<path fill-rule="evenodd" clip-rule="evenodd" fill="#0473BB" d="M712.388,633.966c-4.586-6.733-8.554-12.561-13.759-20.202
	c-8.448,33.351-30.978,53.787-61.053,74.116c1.256-12.643,2.13-21.417,3.37-33.893c-12.623,13.83-21.771,26.625-33.603,36.051
	c-12.311,9.807-27.034,16.7-41.105,24.101c-3.608,1.897-9.975,2.826-12.952,0.908c-12.592-8.111-21.091-1.018-30.811,5.641
	c-16.751,11.478-35.971,15.217-57.14,15.803c-0.721-4.058-1.373-7.734-2.168-12.213c-54.136,23.459-105.283,16.472-154.203-17.129
	c-5.976,17.279-16.07,9.487-23.732,3.528c-13.298-10.343-25.288-22.359-38.043-33.422c-3.241-2.81-7.3-4.673-12.844-8.132
	c0.593,7.016,0.982,11.619,1.458,17.268c-15.477,0.799-22.926-10.928-31.764-18.638c-8.895-7.761-15.49-18.157-24.753-29.417
	c-5.187,9.443-7.407,13.484-11.975,21.801c-12.554-26.032-23.63-48.998-35.125-72.835c-3.52,2.156-6.259,3.836-9.704,5.947
	c-19.628-29.881-29.367-61.831-25.919-101.307c-12.475,11.139-21.839,19.5-31.415,28.051c-2.289-3.051-3.363-3.91-3.212-4.363
	c9.418-28.425,5.753-56.332-0.609-84.951c-3.38-15.203-0.6-31.774-0.6-49.418c-4.918,4.378-9.804,8.726-14.585,12.98
	c-7.483-32.535,7.156-70.134,41.574-94.071c-7.675-2.925-15.466-4.616-21.674-8.71c-4.194-2.766-6.156-8.917-9.117-13.555
	c4.294-1.407,8.648-4.188,12.872-4c28.832,1.277,53.358-8.383,76.803-29.844c-11.671-2.294-21.533-4.234-33.673-6.622
	c25.411-20.658,52.665-24.107,84.771-20.815c-10.769-10.392-18.474-17.827-26.178-25.26c0.92-1.43,1.839-2.858,2.758-4.288
	c3.637,0.71,7.289,1.351,10.907,2.141c12.169,2.662,24.462,8.016,36.451,7.394c14.552-0.755,19.955,9.426,26.713,17.129
	c24.022,27.378,54.684,36.757,89.289,33.394c37.82-3.676,65.993-23.577,84.605-56.835c0.569-1.019,2.119-1.489,6.168-4.179
	c0.888,1.938,1.803,4.479,3.143,6.771c41.215,70.489,137.586,74.768,184.833,11.962c2.756-3.663,11.564-6.107,16.034-4.603
	c27.764,9.351,55.538,14.715,84.677,7.311c1.918-0.487,6.274,1.351,6.4,2.46c0.369,3.217,0.075,7.209-1.618,9.821
	c-3.992,6.156-8.948,11.689-15.213,19.626c26.763,4.51,55.017,0.352,68.139,31.065c-7.781-1.762-14.258-3.227-20.733-4.694
	c-0.597,0.852-1.193,1.701-1.79,2.551c15.101,19.291,30.202,38.583,45.213,57.757c-7.316,0-16.956,0-31.206,0
	c30.315,19.806,49.72,42.118,49.208,79.426c-9.889-5.062-17.564-8.993-27.185-13.918c4.193,25.458,14.985,44.483,37.863,55.978
	c-4.412,9.815-11.544,11.774-19.987,8.933c-7.029-2.367-13.635-5.992-23.157-10.292c0.621,9.414,1.247,16.712,1.558,24.024
	c0.962,22.617,1.627,45.201-15.933,63.149c-1.547,1.583-3.156,3.156-4.956,4.422c-0.991,0.695-2.44,0.739-4.431,1.279
	c-1.992-7.898-3.92-15.544-6.779-26.881C738.678,554.191,726.073,592.438,712.388,633.966z M504.039,325.561
	c-1.025,0.832-2.049,1.663-3.074,2.496c1.299,3.758,2.67,7.494,3.875,11.282c0.972,3.049,2.781,6.39,2.175,9.154
	c-0.308,1.406-5.676,3.279-7.796,2.459c-13.524-5.232-28.462-8.917-39.727-17.381c-16.5-12.399-15.354-13.93-31.334,0.261
	c-1.675,1.486-3.043,3.637-4.984,4.454c-10.811,4.543-19.201,16.211-33.796,12.49c0.546-2.792,0.963-4.511,1.208-6.254
	c0.85-6.038,1.642-12.085,2.455-18.129c-5.462,2.852-11.478,4.982-16.289,8.68c-18.396,14.141-37.993,25.343-61.293,29.189
	c-9.741,1.607-15.278,0.468-14.805-11.756c0.44-11.391-4.783-13.498-14.052-7.179c-3.338,2.276-6.404,5.009-9.911,6.97
	c-11.106,6.214-22.134,12.913-36.916,12.432c1.066-4.235,2.143-6.734,2.24-9.271c0.206-5.278-0.106-10.574-0.207-15.863
	c-5.144,1.745-10.342,3.349-15.396,5.318c-1.587,0.618-2.747,2.278-4.171,3.371c-25.52,19.562-66.217,21.858-92.578,4.342
	c-8.862-5.889-19.112-11.396-17.274-25.845c0.974-7.655-12.717-13.416-18.082-6.834c-6.574,8.067-9.248,19.387-12.858,29.565
	c-0.167,0.472,6.831,4.026,10.77,5.256c3.698,1.156,8.521-0.063,11.536,1.841c12.75,8.052,25.04,16.841,37.432,25.454
	c2.811,1.953,6.523,3.725,7.854,6.519c14.789,31.018,30.223,61.792,43.413,93.492c13.868,33.329,27.524,66.493,54.56,91.709
	c68.727,64.094,150.462,79.755,240.008,61.809c37.74-7.564,72.082-23.425,100.548-51.074c30.865-29.983,47.969-67.69,63.555-106.42
	c10.869-27.007,20.323-54.583,31.158-81.604c1.908-4.76,6.871-9.207,11.539-11.744c8.187-4.446,17.392-6.966,25.882-10.911
	c9.432-4.383,17.214-13.098,29.467-9.584c1.664,0.477,5.446-2.931,6.756-5.347c4.841-8.938,1.294-27.679-6.706-33.772
	c-3.263-2.484-8.71-4.818-11.995-3.72c-2.783,0.931-3.857,6.913-5.734,10.637c-2.814,5.581-4.234,13.113-8.738,16.39
	c-28.28,20.572-87.746,28.315-117.226-0.009c-2.549-2.449-6.326-3.619-12.537-7.033c1.67,11.625,2.831,19.702,4.688,32.634
	c-18.516-7.947-34.691-13.812-49.819-21.685C532.708,344.464,518.602,334.573,504.039,325.561z"/>
<path fill="#FFFFFF" d="M529.98,50.221c-26.649-0.972-50.66,7.185-70.297,25.724c-7.211,6.809-13.364,14.041-18.125,21.677H411.6
	c-16.71-28.182-47.482-47.296-82.624-47.585c-53.681-0.44-98.685,42.774-99.069,95.132c-0.389,52.832,41.687,95.473,94.41,95.679
	c41.098,0.16,75.792-22.01,91.534-54.728h24.101c14.181,31.112,46.436,53.237,83.647,54.71c52.941,2.097,98.896-39.5,101.063-91.48
	C626.853,96.793,584.646,52.215,529.98,50.221z"/>
<g>
	<path fill-rule="evenodd" clip-rule="evenodd" d="M33.348,373.375c3.513-21.938,10.791-42.238,23.66-60.71
		c2.208-3.171-1.146-10.422-2.319-15.701c-1.887-8.496-5.914-16.952-5.756-25.363c0.256-13.549,7.15-17.705,20.665-15.282
		c21.479,3.853,20.691,3.388,28.698-15.925c2.956-7.129,10.643-13.207,17.554-17.579c11.263-7.126,23.255-13.552,35.721-18.167
		c8.414-3.114,12.785-6.851,13.391-15.864c0.286-4.249,2.094-8.849,4.513-12.407c4.778-7.027,10.501-10.425,19.116-4.072
		c5.646,4.163,12.515,7.274,19.307,9.145c11.872,3.27,16.917-1.405,15.432-13.754c-3.566-29.667,0.912-57.039,19.326-81.724
		C284.084,30.438,372.296,28.687,415,82.962c1.945,2.472,3.87,4.963,5.875,7.386c5.579,6.748,10.399,7.213,15.76-0.774
		c18.284-27.239,45.325-40.074,76.694-45.117c69.329-11.147,131.861,51.758,120.468,121.027
		c-3.31,20.122-3.028,20.562,16.471,26.265c23.197,6.784,46.341,10.371,70.121,1.967c11.164-3.945,18.308,1.085,16.625,13.168
		c-2.244,16.115,4.729,22.893,18.362,29.196c22.442,10.375,32.689,29.403,30.781,54.445c-0.652,8.562,9.405,19.239,20.885,21.254
		c8.607,1.511,21.14-0.286,20.009,11.908c-0.592,6.377-11.033,11.872-17.103,17.684c-1.248,1.195-2.836,2.035-4.675,3.324
		c6.945,13.351,14.66,25.961,20.204,39.461c5.711,13.908,8.677,28.627-4.33,41.082c1.732,1.401,2.655,2.427,3.802,3.028
		c9.262,4.857,17.91,11.44,14.77,22.76c-3.207,11.556-14.007,17.149-25.337,16.392c-15.164-1.015-17.166,4.329-16.826,18.628
		c0.74,31.229-8.896,58.246-39.513,74.015c-5.314,2.737-8.049,11.058-11.275,17.169c-9.844,18.646-15.031,38.371-13.254,59.699
		c1.14,13.682-4.131,18.735-17.416,13.685c-12.749-4.847-18.966-1.568-26.378,9.129c-7.256,10.473-17.65,19.01-27.61,27.259
		c-4.558,3.775-12.071,7.738-17.036,6.554c-14.797-3.526-22.133,6.755-32.524,12.938c-15.958,9.497-33.565,16.23-50.525,24.021
		c-1.57,0.722-3.932,1.424-5.236,0.768c-17.201-8.657-29.434,4.45-43.285,9.858c-19.006,7.419-37.738,7.907-58.051,4.543
		c-13.193-2.186-27.677,3.407-41.582,5.516c-7.196,0-14.394,0-21.59,0c-22.554-7.099-45.107-14.201-67.667-21.284
		c-1.278-0.402-2.833-1.259-3.878-0.873c-19.555,7.218-32.647-5.863-46.036-15.638c-10.589-7.729-19.52-15.014-34.458-12.883
		c-7.755,1.106-17.344-4.132-24.746-8.704c-9.032-5.582-16.637-13.476-25.007-20.492c-11.115,4.787-15.178,5.495-23.098-4.065
		c-11.591-13.989-21.05-29.749-31.333-44.812c-2.958-4.334-4.619-10.35-8.599-13.059c-21.638-14.722-32.211-36.329-36.502-60.678
		c-2.493-14.147-6.13-19.062-21.422-16.041c-18.997,3.755-25.312-4.071-17.933-22.909c9.25-23.618,8.526-46.565,0.996-69.777
		c-5.806-17.903-12.79-35.423-19.25-53.114C33.348,382.372,33.348,377.873,33.348,373.375z M712.388,633.966
		c13.686-41.528,26.29-79.774,40.105-121.696c2.859,11.337,4.787,18.982,6.779,26.881c1.99-0.54,3.439-0.584,4.431-1.279
		c1.8-1.266,3.409-2.839,4.956-4.422c17.56-17.948,16.895-40.532,15.933-63.149c-0.311-7.312-0.937-14.61-1.558-24.024
		c9.522,4.3,16.128,7.925,23.157,10.292c8.443,2.842,15.575,0.883,19.987-8.933c-22.878-11.495-33.67-30.521-37.863-55.978
		c9.62,4.925,17.296,8.856,27.185,13.918c0.512-37.308-18.893-59.62-49.208-79.426c14.25,0,23.89,0,31.206,0
		c-15.011-19.174-30.112-38.466-45.213-57.757c0.597-0.85,1.193-1.7,1.79-2.551c6.476,1.467,12.952,2.932,20.733,4.694
		c-13.122-30.714-41.376-26.555-68.139-31.065c6.265-7.937,11.221-13.47,15.213-19.626c1.693-2.612,1.987-6.604,1.618-9.821
		c-0.126-1.109-4.482-2.948-6.4-2.46c-29.139,7.405-56.913,2.04-84.677-7.311c-4.47-1.505-13.278,0.939-16.034,4.603
		c-47.247,62.805-143.618,58.526-184.833-11.962c-1.34-2.292-2.255-4.832-3.143-6.771c-4.049,2.689-5.599,3.16-6.168,4.179
		c-18.613,33.258-46.785,53.159-84.605,56.835c-34.605,3.363-65.267-6.016-89.289-33.394c-6.759-7.704-12.161-17.885-26.713-17.129
		c-11.989,0.622-24.282-4.732-36.451-7.394c-3.619-0.791-7.27-1.431-10.907-2.141c-0.918,1.43-1.838,2.858-2.758,4.288
		c7.705,7.434,15.41,14.868,26.178,25.26c-32.107-3.292-59.36,0.157-84.771,20.815c12.14,2.388,22.002,4.328,33.673,6.622
		c-23.445,21.461-47.971,31.121-76.803,29.844c-4.224-0.187-8.577,2.593-12.872,4c2.961,4.637,4.923,10.789,9.117,13.555
		c6.208,4.094,14,5.785,21.674,8.71c-34.418,23.937-49.057,61.536-41.574,94.071c4.781-4.254,9.667-8.602,14.585-12.98
		c0,17.644-2.78,34.215,0.6,49.418c6.362,28.619,10.027,56.526,0.609,84.951c-0.15,0.453,0.924,1.312,3.212,4.363
		c9.576-8.551,18.94-16.912,31.415-28.051c-3.448,39.476,6.291,71.426,25.919,101.307c3.444-2.111,6.184-3.791,9.704-5.947
		c11.495,23.837,22.57,46.803,35.125,72.835c4.567-8.316,6.788-12.357,11.975-21.801c9.264,11.26,15.859,21.656,24.753,29.417
		c8.838,7.71,16.288,19.437,31.764,18.638c-0.477-5.648-0.866-10.252-1.458-17.268c5.544,3.459,9.604,5.322,12.844,8.132
		c12.755,11.062,24.745,23.079,38.043,33.422c7.663,5.959,17.757,13.751,23.732-3.528c48.92,33.601,100.067,40.588,154.203,17.129
		c0.795,4.479,1.447,8.155,2.168,12.213c21.169-0.586,40.389-4.325,57.14-15.803c9.72-6.658,18.219-13.752,30.811-5.641
		c2.978,1.918,9.344,0.989,12.952-0.908c14.071-7.4,28.795-14.294,41.105-24.101c11.832-9.426,20.979-22.221,33.603-36.051
		c-1.24,12.476-2.114,21.25-3.37,33.893c30.075-20.329,52.604-40.766,61.053-74.116
		C703.834,621.405,707.802,627.232,712.388,633.966z M324.316,240.848c56.175,0.219,100.391-41.278,100.591-94.41
		c0.2-52.66-42.895-95.964-95.932-96.401c-53.681-0.44-98.685,42.774-99.069,95.132
		C229.518,198.001,271.593,240.642,324.316,240.848z M432.332,147.388c-2.016,50.047,39.911,91.409,91.267,93.442
		c52.941,2.097,98.896-39.5,101.063-91.48c2.19-52.557-40.017-97.135-94.682-99.129c-26.649-0.972-50.66,7.185-70.297,25.724
		C438.249,96.182,426.113,120.15,432.332,147.388z"/>
	<path fill-rule="evenodd" clip-rule="evenodd" d="M504.039,325.561c14.562,9.012,28.669,18.903,43.818,26.787
		c15.128,7.874,31.304,13.738,49.819,21.685c-1.856-12.933-3.018-21.009-4.688-32.634c6.211,3.415,9.988,4.584,12.537,7.033
		c29.479,28.325,88.945,20.582,117.226,0.009c4.504-3.277,5.924-10.81,8.738-16.39c1.877-3.724,2.951-9.707,5.734-10.637
		c3.285-1.098,8.732,1.236,11.995,3.72c8,6.093,11.547,24.834,6.706,33.772c-1.31,2.417-5.092,5.824-6.756,5.347
		c-12.253-3.514-20.035,5.201-29.467,9.584c-8.49,3.945-17.695,6.465-25.882,10.911c-4.668,2.537-9.631,6.984-11.539,11.744
		c-10.835,27.021-20.289,54.597-31.158,81.604c-15.586,38.729-32.689,76.437-63.555,106.42
		c-28.466,27.649-62.808,43.51-100.548,51.074c-89.546,17.946-171.281,2.285-240.008-61.809
		c-27.036-25.216-40.692-58.38-54.56-91.709c-13.19-31.7-28.624-62.474-43.413-93.492c-1.331-2.794-5.043-4.566-7.854-6.519
		c-12.392-8.613-24.681-17.402-37.432-25.454c-3.015-1.904-7.838-0.685-11.536-1.841c-3.939-1.23-10.938-4.785-10.77-5.256
		c3.611-10.178,6.284-21.498,12.858-29.565c5.365-6.582,19.056-0.821,18.082,6.834c-1.838,14.449,8.413,19.956,17.274,25.845
		c26.361,17.517,67.059,15.22,92.578-4.342c1.424-1.093,2.584-2.753,4.171-3.371c5.055-1.97,10.253-3.574,15.396-5.318
		c0.1,5.29,0.412,10.585,0.207,15.863c-0.097,2.538-1.174,5.036-2.24,9.271c14.781,0.481,25.81-6.217,36.916-12.432
		c3.506-1.961,6.573-4.694,9.911-6.97c9.269-6.318,14.493-4.211,14.052,7.179c-0.473,12.224,5.064,13.363,14.805,11.756
		c23.3-3.847,42.898-15.049,61.293-29.189c4.811-3.698,10.827-5.829,16.289-8.68c-0.813,6.044-1.605,12.092-2.455,18.129
		c-0.245,1.744-0.662,3.462-1.208,6.254c14.595,3.721,22.985-7.946,33.796-12.49c1.941-0.817,3.309-2.968,4.984-4.454
		c15.98-14.19,14.834-12.66,31.334-0.261c11.265,8.464,26.202,12.148,39.727,17.381c2.12,0.82,7.488-1.053,7.796-2.459
		c0.606-2.764-1.203-6.105-2.175-9.154c-1.205-3.789-2.576-7.524-3.875-11.282C501.99,327.224,503.014,326.393,504.039,325.561z"/>
	<path fill-rule="evenodd" clip-rule="evenodd" d="M351.198,127.65c22.921-0.183,41.327,16.87,41.728,38.659
		c0.436,23.79-17.414,41.925-41.285,41.944c-23.237,0.019-42.371-18.161-42.116-40.016
		C309.787,145.639,328.067,127.835,351.198,127.65z"/>
	<path fill-rule="evenodd" clip-rule="evenodd" d="M495.674,90.503c23.253-0.025,42.703,18.845,42.562,41.294
		c-0.141,22.458-18.486,40.039-41.855,40.111c-23.013,0.07-41.509-17.783-41.713-40.262
		C454.464,109.416,473.291,90.528,495.674,90.503z"/>
</g>
</svg>
